<svg width="49" height="75" viewBox="0 0 49 75" fill="none" xmlns="http://www.w3.org/2000/svg">
<path d="M16.6805 69.997C16.6805 67.695 18.5466 65.8288 20.8487 65.8288C23.1508 65.8288 25.017 67.695 25.017 69.997C25.017 72.2991 23.1508 74.1653 20.8487 74.1653C18.5466 74.1653 16.6805 72.2991 16.6805 69.997Z" fill="#8B3C76"/>
<path d="M23.3496 62.4942C23.3496 60.1921 25.2158 58.3259 27.5179 58.3259C29.82 58.3259 31.6862 60.1921 31.6862 62.4942C31.6862 64.7962 29.82 66.6624 27.5179 66.6624C25.2158 66.6624 23.3496 64.7962 23.3496 62.4942Z" fill="#8B3C76"/>
<path d="M23.3496 52.4904C23.3496 50.1883 25.2158 48.3221 27.5179 48.3221C29.82 48.3221 31.6862 50.1883 31.6862 52.4904C31.6862 54.7924 29.82 56.6586 27.5179 56.6586C25.2158 56.6586 23.3496 54.7924 23.3496 52.4904Z" fill="#8B3C76"/>
<path d="M16.6805 44.9875C16.6805 42.6854 18.5466 40.8193 20.8487 40.8193C23.1508 40.8193 25.017 42.6854 25.017 44.9875C25.017 47.2896 23.1508 49.1558 20.8487 49.1558C18.5466 49.1558 16.6805 47.2896 16.6805 44.9875Z" fill="#8B3C76"/>
<path d="M11.912 48.5889C13.6126 50.0394 15.0632 51.2565 16.7638 52.7238C17.6642 53.4907 18.5645 54.4744 18.9646 55.6416C19.0313 55.825 19.0814 56.0084 19.1147 56.1918C19.1814 56.6086 19.1814 57.0588 19.1814 57.4923C19.1814 57.9258 19.1814 58.3759 19.098 58.8094C19.0647 58.9928 19.0147 59.1762 18.948 59.3596C18.5478 60.5267 17.6475 61.4938 16.7471 62.2774C15.0465 63.728 13.5959 64.9451 11.8953 66.4123C9.71112 68.5965 7.29353 71.2808 3.90891 70.7806C2.20826 70.2971 0.524285 69.08 0.0407688 66.8958C-0.209327 65.6787 0.774379 61.7939 0.774379 57.659V57.3589C0.774379 53.224 -0.192654 49.3391 0.0407688 48.122C0.524285 45.9379 2.22493 44.7207 3.90891 44.2372C7.31021 43.7203 9.72779 46.4047 11.912 48.5889Z" fill="#8B3C76"/>
<path d="M33.4654 29.1778C33.4654 26.8758 35.3316 25.0096 37.6337 25.0096C39.9357 25.0096 41.8019 26.8758 41.8019 29.1778C41.8019 31.4799 39.9357 33.3461 37.6337 33.3461C35.3316 33.3461 33.4654 31.4799 33.4654 29.1778Z" fill="#8B3C76"/>
<path d="M40.1346 21.6749C40.1346 19.3728 42.0008 17.5066 44.3029 17.5066C46.6049 17.5066 48.4711 19.3728 48.4711 21.6749C48.4711 23.9769 46.6049 25.8431 44.3029 25.8431C42.0008 25.8431 40.1346 23.9769 40.1346 21.6749Z" fill="#8B3C76"/>
<path d="M40.1346 11.6711C40.1346 9.36904 42.0008 7.50285 44.3029 7.50285C46.6049 7.50285 48.4711 9.36904 48.4711 11.6711C48.4711 13.9732 46.6049 15.8394 44.3029 15.8394C42.0008 15.8394 40.1346 13.9732 40.1346 11.6711Z" fill="#8B3C76"/>
<path d="M33.4654 4.16823C33.4654 1.86617 35.3316 -2.3345e-05 37.6337 -2.3345e-05C39.9357 -2.3345e-05 41.8019 1.86617 41.8019 4.16823C41.8019 6.4703 39.9357 8.33649 37.6337 8.33649C35.3316 8.33649 33.4654 6.4703 33.4654 4.16823Z" fill="#8B3C76"/>
<path d="M28.6969 7.76959C30.3976 9.22014 31.8481 10.4373 33.5488 11.9045C34.4491 12.6715 35.3495 13.6552 35.7496 14.8223C35.8163 15.0057 35.8663 15.1891 35.8997 15.3725C35.9664 15.7893 35.9664 16.2395 35.9664 16.673C35.9664 17.1065 35.9664 17.5566 35.883 17.9901C35.8497 18.1736 35.7996 18.357 35.7329 18.5404C35.3328 19.7075 34.4325 20.6745 33.5321 21.4581C31.8315 22.9087 30.3809 24.1258 28.6803 25.593C26.4961 27.7772 24.0785 30.4616 20.6939 29.9614C18.9932 29.4779 17.3093 28.2607 16.8257 26.0766C16.5756 24.8594 17.5594 20.9746 17.5594 16.8397V16.5396C17.5594 12.4047 16.5923 8.51987 16.8257 7.30274C17.3093 5.11858 19.0099 3.90145 20.6939 3.41793C24.0952 2.90106 26.5128 5.58542 28.6969 7.76959Z" fill="#8B3C76"/>
</svg>
