<svg width="98" height="125" viewBox="0 0 98 125" fill="none" xmlns="http://www.w3.org/2000/svg">
<path d="M36.6943 84.5094C41.0842 80.0995 41.0679 72.9658 36.6579 68.5759C32.248 64.1861 25.1143 64.2024 20.7244 68.6123C16.3346 73.0223 16.3509 80.156 20.7608 84.5458C25.1708 88.9357 32.3045 88.9194 36.6943 84.5094Z" fill="#FFE180"/>
<path d="M38.2258 57.4189C42.6157 53.0089 42.5994 45.8752 38.1894 41.4854C33.7794 37.0955 26.6458 37.1118 22.2559 41.5218C17.8661 45.9317 17.8824 53.0654 22.2923 57.4553C26.7023 61.8451 33.8359 61.8288 38.2258 57.4189Z" fill="#FFE180"/>
<path d="M57.3022 38.255C61.6921 33.8451 61.6758 26.7114 57.2658 22.3216C52.8559 17.9317 45.7222 17.948 41.3323 22.358C36.9425 26.7679 36.9588 33.9016 41.3687 38.2914C45.7787 42.6813 52.9124 42.665 57.3022 38.255Z" fill="#FFE180"/>
<path d="M84.3856 36.5998C88.7755 32.1899 88.7592 25.0562 84.3492 20.6663C79.9392 16.2765 72.8056 16.2928 68.4157 20.7027C64.0258 25.1127 64.0421 32.2464 68.4521 36.6362C72.8621 41.0261 79.9957 41.0098 84.3856 36.5998Z" fill="#FFE180"/>
<path d="M86.6529 52.5919C80.629 52.1277 75.5292 51.6932 69.4735 51.2609C66.2862 51.0132 62.6856 51.1808 59.6934 52.6535C59.2159 52.8777 58.7704 53.1336 58.3568 53.4214C57.4342 54.0927 56.5757 54.955 55.7491 55.7855C54.9224 56.6159 54.064 57.4783 53.397 58.4677C53.1112 58.8826 52.8573 59.3293 52.6353 59.8079C51.1762 62.8067 51.0569 66.3761 51.2874 69.5941C51.7791 75.6159 52.2369 80.7136 52.6969 86.7673C52.7159 95.1165 52.2283 104.869 59.6659 110.365C63.8458 112.682 69.3927 113.561 74.484 110.299C77.2841 108.445 82.8077 99.1267 90.6926 91.2057L91.2649 90.6307C99.1499 82.7097 108.41 77.1118 110.284 74.335C113.523 69.2289 112.586 63.6543 110.282 59.5168C104.752 52.0407 95.0021 52.5728 86.6529 52.5919Z" fill="#FFE180"/>
</svg>
