<svg width="34" height="33" viewBox="0 0 34 33" fill="none" xmlns="http://www.w3.org/2000/svg">
<path d="M29.75 15.2998C27.4028 15.2998 25.5 13.397 25.5 11.0498C25.5 8.7026 27.4028 6.7998 29.75 6.7998C32.0972 6.7998 34 8.7026 34 11.0498C34 13.397 32.0972 15.2998 29.75 15.2998Z" fill="#EBA059"/>
<path d="M22.0999 8.49988C19.7527 8.49988 17.8499 6.59709 17.8499 4.24988C17.8499 1.90267 19.7527 -0.000121782 22.0999 -0.000121885C24.4471 -0.000121987 26.3499 1.90267 26.3499 4.24988C26.3499 6.59709 24.4471 8.49988 22.0999 8.49988Z" fill="#EBA059"/>
<path d="M11.9 8.49988C9.55275 8.49988 7.64996 6.59709 7.64996 4.24988C7.64996 1.90267 9.55275 -0.000121782 11.9 -0.000121885C14.2472 -0.000121987 16.15 1.90267 16.15 4.24988C16.15 6.59709 14.2472 8.49988 11.9 8.49988Z" fill="#EBA059"/>
<path d="M4.25 15.2998C1.90279 15.2998 -3.01968e-06 13.397 -3.12228e-06 11.0498C-3.22488e-06 8.7026 1.90279 6.7998 4.25 6.7998C6.59721 6.7998 8.5 8.7026 8.5 11.0498C8.5 13.397 6.59721 15.2998 4.25 15.2998Z" fill="#EBA059"/>
<path d="M7.92192 20.1619C9.40092 18.4279 10.6419 16.9489 12.1379 15.2149C12.9199 14.2969 13.9229 13.3789 15.1129 12.9709C15.2999 12.9029 15.4869 12.8519 15.6739 12.8179C16.0989 12.7499 16.5579 12.7499 16.9999 12.7499C17.4419 12.7499 17.9009 12.7499 18.3429 12.8349C18.5299 12.8689 18.7169 12.9199 18.9039 12.9879C20.0939 13.3959 21.0799 14.3139 21.8789 15.2319C23.3579 16.9659 24.5989 18.4449 26.0949 20.1789C28.3219 22.4059 31.0589 24.8709 30.5489 28.3219C30.0559 30.0559 28.8149 31.7729 26.5879 32.2659C25.3469 32.5209 21.3859 31.5179 17.1699 31.5179L16.8639 31.5179C12.6479 31.5179 8.68692 32.5039 7.44592 32.2659C5.21892 31.7729 3.97792 30.0389 3.48492 28.3219C2.95792 24.8539 5.69492 22.3889 7.92192 20.1619Z" fill="#EBA059"/>
</svg>
