<svg width="28" height="27" viewBox="0 0 28 27" fill="none" xmlns="http://www.w3.org/2000/svg">
<path d="M3.5 12.6001C5.433 12.6001 7 11.0331 7 9.1001C7 7.1671 5.433 5.6001 3.5 5.6001C1.567 5.6001 0 7.1671 0 9.1001C0 11.0331 1.567 12.6001 3.5 12.6001Z" fill="white"/>
<path d="M9.79999 7C11.733 7 13.3 5.433 13.3 3.5C13.3 1.567 11.733 0 9.79999 0C7.86699 0 6.29999 1.567 6.29999 3.5C6.29999 5.433 7.86699 7 9.79999 7Z" fill="white"/>
<path d="M18.2 7C20.133 7 21.7 5.433 21.7 3.5C21.7 1.567 20.133 0 18.2 0C16.267 0 14.7 1.567 14.7 3.5C14.7 5.433 16.267 7 18.2 7Z" fill="white"/>
<path d="M24.5 12.6001C26.433 12.6001 28 11.0331 28 9.1001C28 7.1671 26.433 5.6001 24.5 5.6001C22.567 5.6001 21 7.1671 21 9.1001C21 11.0331 22.567 12.6001 24.5 12.6001Z" fill="white"/>
<path d="M21.476 16.604C20.258 15.176 19.236 13.958 18.004 12.53C17.36 11.774 16.534 11.018 15.554 10.682C15.4 10.626 15.246 10.584 15.092 10.556C14.742 10.5 14.364 10.5 14 10.5C13.636 10.5 13.258 10.5 12.894 10.57C12.74 10.598 12.586 10.64 12.432 10.696C11.452 11.032 10.64 11.788 9.98204 12.544C8.76404 13.972 7.74204 15.19 6.51004 16.618C4.67604 18.452 2.42204 20.482 2.84204 23.324C3.24804 24.752 4.27004 26.166 6.10404 26.572C7.12604 26.782 10.388 25.956 13.86 25.956H14.112C17.584 25.956 20.846 26.768 21.868 26.572C23.702 26.166 24.724 24.738 25.13 23.324C25.564 20.468 23.31 18.438 21.476 16.604Z" fill="white"/>
</svg>
