<svg width="54" height="54" viewBox="0 0 54 54" fill="none" xmlns="http://www.w3.org/2000/svg">
<circle cx="27" cy="27" r="27" fill="#1276EF"/>
<path d="M34.51 12.1562L30.7607 12.15C26.5485 12.15 23.8263 15.0189 23.8263 19.4592V22.8293H20.0566C19.7308 22.8293 19.467 23.1006 19.467 23.4352V28.318C19.467 28.6526 19.7311 28.9236 20.0566 28.9236H23.8263V41.2444C23.8263 41.5791 24.0901 41.85 24.4159 41.85H29.3343C29.6601 41.85 29.9239 41.5787 29.9239 41.2444V28.9236H34.3316C34.6574 28.9236 34.9212 28.6526 34.9212 28.318L34.923 23.4352C34.923 23.2745 34.8607 23.1206 34.7503 23.0069C34.6399 22.8932 34.4895 22.8293 34.3331 22.8293H29.9239V19.9724C29.9239 18.5993 30.2424 17.9023 31.9837 17.9023L34.5094 17.9014C34.8348 17.9014 35.0986 17.6301 35.0986 17.2958V12.7618C35.0986 12.4278 34.8351 12.1568 34.51 12.1562Z" fill="white"/>
</svg>
